<?xml version="1.0" encoding="utf-8"?>
<!-- Generator: Adobe Illustrator 22.0.1, SVG Export Plug-In . SVG Version: 6.00 Build 0)  -->
<svg version="1.1" id="Layer_1" xmlns="http://www.w3.org/2000/svg" xmlns:xlink="http://www.w3.org/1999/xlink" x="0px" y="0px"
	 viewBox="0 0 168 68.7" style="enable-background:new 0 0 168 68.7;" xml:space="preserve">
<style type="text/css">
	.st0{fill:#DBA146;}
</style>
<path class="st0" d="M89.4,42.6c1.3-1.6,3.1-2.4,5.2-2.4c3.7,0,5.6,2.1,5.6,6.3V58h-3V46.4c0-1.3-0.3-2.2-0.9-2.8s-1.5-0.9-2.7-0.9
	c-1,0-1.8,0.3-2.6,0.8s-1.3,1.2-1.7,2V58h-3V33.1h3V42.6z"/>
<path class="st0" d="M113,58.3c-2.4,0-4.3-0.8-5.8-2.3c-1.5-1.6-2.2-3.6-2.2-6.3v-0.6c0-1.7,0.3-3.3,1-4.7c0.7-1.4,1.6-2.4,2.8-3.2
	c1.2-0.8,2.5-1.2,3.9-1.2c2.3,0,4.1,0.8,5.3,2.3c1.3,1.5,1.9,3.7,1.9,6.5v1.2H108c0,1.7,0.5,3.1,1.5,4.2c1,1.1,2.2,1.6,3.7,1.6
	c1.1,0,2-0.2,2.7-0.6c0.7-0.4,1.4-1,1.9-1.7l1.8,1.4C118.1,57.2,115.9,58.3,113,58.3z M112.6,42.6c-1.2,0-2.2,0.4-3,1.3
	s-1.3,2.1-1.5,3.7h8.8v-0.2c-0.1-1.5-0.5-2.7-1.2-3.5C114.9,43,113.9,42.6,112.6,42.6z"/>
<path class="st0" d="M127.1,40.5l0.1,1.9c1.3-1.5,3-2.3,5.2-2.3c2.5,0,4.1,0.9,5,2.8c0.6-0.8,1.3-1.5,2.3-2c0.9-0.5,2-0.8,3.3-0.8
	c3.8,0,5.8,2,5.9,6.1V58h-3V46.5c0-1.3-0.3-2.2-0.9-2.8s-1.5-0.9-2.9-0.9c-1.1,0-2,0.3-2.8,1c-0.7,0.7-1.2,1.6-1.3,2.7V58h-3V46.5
	c0-2.6-1.2-3.8-3.7-3.8c-2,0-3.3,0.8-4,2.5V58h-3V40.5H127.1z"/>
<path class="st0" d="M160.7,58.3c-2.4,0-4.3-0.8-5.8-2.3s-2.2-3.6-2.2-6.3v-0.6c0-1.7,0.3-3.3,1-4.7c0.7-1.4,1.6-2.4,2.8-3.2
	c1.2-0.8,2.5-1.2,3.9-1.2c2.3,0,4.1,0.8,5.3,2.3c1.3,1.5,1.9,3.7,1.9,6.5v1.2h-11.9c0,1.7,0.5,3.1,1.5,4.2c1,1.1,2.2,1.6,3.7,1.6
	c1.1,0,2-0.2,2.7-0.6c0.7-0.4,1.4-1,1.9-1.7l1.8,1.4C165.8,57.2,163.6,58.3,160.7,58.3z M160.3,42.6c-1.2,0-2.2,0.4-3,1.3
	s-1.3,2.1-1.5,3.7h8.8v-0.2c-0.1-1.5-0.5-2.7-1.2-3.5C162.6,43,161.6,42.6,160.3,42.6z"/>
<path class="st0" d="M99.2,8.8c-1,1.4-2,2.8-3.1,4.2c-1.4,1.9-2.8,3.8-4.2,5.7c-0.7,1-1.4,1.9-2.3,2.7c-0.8,0.7-1.7,1-2.7,1
	c-6.1,0.2-12.1,0.1-18.2,0.1c-3.1,0-6.2,0-9.3,0c-1.8,0-3.6,0.2-5.3,0.9c-0.4,0.1-0.7,0.4-1,0.7c0.1-1,0.6-1.8,1.1-2.5
	c2.1-2.9,4.2-5.7,6.3-8.6c1.3-1.7,2.9-2.6,5-2.6c8.7,0.1,17.4,0,26.1,0c1.9,0,3.9-0.1,5.8-0.9C98.1,9.4,98.6,9,99.2,8.8L99.2,8.8z"
	/>
<path class="st0" d="M81.4,44.1c-1.3-3-3.8-4.4-6.3-5.9c-4.8-2.8-9.6-5.5-14.4-8.3c-2-1.1-4-2.3-6-3.5c-0.5-0.3-0.9-0.7-1.2-1.1
	c-0.3-0.3-0.2-0.6,0.1-0.9c0.6-0.6,1.3-0.7,2-0.9c1.7-0.4,3.5-0.5,5.3-0.5c3.5,0,7,0,10.5,0c0.7,0,1.3,0.1,2,0.5
	c1.9,1.2,3.9,2.3,5.8,3.4c1.5,0.8,2.2,2.2,2.2,3.9c0,0.3,0,0.6,0,0.8c0,4,0,8,0,12C81.5,43.8,81.5,43.9,81.4,44.1z"/>
<path class="st0" d="M68.7,68.6c0.4-1.1,0.8-2.2,1-3.4c0.3-1.5,0.5-3.1,0.5-4.7c0-7.8,0-15.6,0-23.4c0-0.2,0-0.4,0-0.6
	c0-0.5,0.1-0.5,0.5-0.3c0.8,0.5,1.6,0.9,2.4,1.4c1.7,1,3.4,1.9,4.9,3c1.6,1.2,2.7,2.7,3.4,4.7c0.1,0.2,0.1,0.3,0.1,0.5
	c0,3.1,0,6.1,0,9.2c0,1.8-0.7,3.2-2,4.4c-2,1.9-4.2,3.6-6.3,5.4c-1.3,1.2-2.7,2.3-4.1,3.4C69,68.4,68.8,68.5,68.7,68.6z"/>
<path class="st0" d="M86.9,9.9c0.6-0.7,1.2-1.4,1.8-2c1.2-1.2,2.4-2.4,3.5-3.7c1.2-1.2,2.3-2.4,3.5-3.7c0.2-0.2,0.3-0.3,0.5,0.1
	c0.9,2.4,1.9,4.8,2.8,7.1c0.1,0.4-0.1,0.5-0.3,0.6c-1.5,0.9-3.1,1.4-4.8,1.5C91.7,10,89.4,10,87.2,10C87.1,10,87,10,86.9,9.9z"/>
<path class="st0" d="M19.2,35.9h-7.8v21.6H8.3V35.9H0.5v-2.6h18.7V35.9z"/>
<path class="st0" d="M15.3,49.2c0-1.7,0.3-3.2,1-4.5c0.7-1.3,1.6-2.4,2.7-3.1c1.2-0.7,2.5-1.1,4-1.1c2.3,0,4.2,0.8,5.6,2.4
	c1.4,1.6,2.1,3.7,2.1,6.4v0.2c0,1.7-0.3,3.1-1,4.5c-0.6,1.3-1.5,2.3-2.7,3.1c-1.2,0.7-2.5,1.1-4.1,1.1c-2.3,0-4.2-0.8-5.6-2.4
	c-1.4-1.6-2.1-3.7-2.1-6.4V49.2z M18.2,49.6c0,1.9,0.4,3.4,1.3,4.5c0.9,1.1,2,1.7,3.5,1.7c1.5,0,2.6-0.6,3.5-1.7
	c0.9-1.2,1.3-2.8,1.3-4.9c0-1.9-0.4-3.4-1.3-4.5c-0.9-1.2-2.1-1.7-3.5-1.7c-1.4,0-2.6,0.6-3.5,1.7C18.7,45.8,18.2,47.4,18.2,49.6z"
	/>
<path class="st0" d="M48.8,49.6c0,2.6-0.6,4.7-1.8,6.3c-1.2,1.6-2.8,2.4-4.8,2.4c-2.1,0-3.7-0.7-4.9-2v8.2h-2.9V40.9h2.7l0.1,1.9
	c1.2-1.5,2.8-2.2,4.9-2.2c2,0,3.7,0.8,4.8,2.3c1.2,1.5,1.8,3.7,1.8,6.4V49.6z M45.9,49.2c0-1.9-0.4-3.4-1.2-4.5
	c-0.8-1.1-1.9-1.7-3.4-1.7c-1.8,0-3.1,0.8-4,2.3v8.1c0.9,1.5,2.2,2.3,4,2.3c1.4,0,2.5-0.6,3.3-1.7C45.5,53,45.9,51.4,45.9,49.2z"/>
<path class="st0" d="M52.5,36.4c0-0.5,0.1-0.9,0.4-1.2c0.3-0.3,0.7-0.5,1.3-0.5c0.6,0,1,0.2,1.3,0.5c0.3,0.3,0.4,0.7,0.4,1.2
	c0,0.5-0.1,0.9-0.4,1.2c-0.3,0.3-0.7,0.5-1.3,0.5c-0.6,0-1-0.2-1.3-0.5C52.6,37.2,52.5,36.8,52.5,36.4z M55.6,57.9h-2.9v-17h2.9
	V57.9z"/>
</svg>
